<svg width="28" height="28" viewBox="0 0 28 28" fill="none" xmlns="http://www.w3.org/2000/svg">
<path fill-rule="evenodd" clip-rule="evenodd" d="M5 0C2.23858 0 0 2.23858 0 5V23C0 25.7614 2.23858 28 5 28H14.0457V17.954H10.7656V13.4418H14.0457C14.0457 13.2592 14.0465 13.0806 14.0474 12.9046C14.0492 12.5169 14.0509 12.1421 14.0435 11.7674C14.022 10.6948 14.2671 9.68456 14.7797 8.74847C15.5949 7.25943 16.7841 6.25188 18.5015 5.9574C18.5153 5.95499 18.5291 5.95249 18.5429 5.94998C18.6153 5.93682 18.6884 5.92355 18.7611 5.92355C19.8544 5.92176 20.9478 5.92183 22.0567 5.92191C22.2792 5.92192 22.5024 5.92193 22.7263 5.92193V10.4331H22.3453C22.0522 10.4331 21.759 10.4361 21.4658 10.439C20.7832 10.4459 20.1005 10.4528 19.4193 10.4224C18.6756 10.3885 18.3258 10.8818 18.278 11.4423C18.2399 11.8888 18.2485 12.3392 18.2573 12.7998C18.2612 13.0022 18.2651 13.2065 18.2651 13.4133H22.7284V17.9213H18.2495V28H23C25.7614 28 28 25.7614 28 23V5C28 2.23858 25.7614 0 23 0H5Z" fill="#F5F5F5"/>
</svg>
