<svg width="28" height="28" viewBox="0 0 28 28" fill="none" xmlns="http://www.w3.org/2000/svg">
<path fill-rule="evenodd" clip-rule="evenodd" d="M5 0C2.23858 0 0 2.23858 0 5V23C0 25.7614 2.23858 28 5 28H23C25.7614 28 28 25.7614 28 23V5C28 2.23858 25.7614 0 23 0H5ZM6.625 14.4098C6.64462 18.323 9.71436 21.5761 13.7901 21.5776C17.8414 21.579 20.9289 18.3565 20.9557 14.4347C20.9825 10.4972 17.7357 7.25598 13.7925 7.2555C9.85794 7.2555 6.63792 10.4694 6.625 14.4098ZM21.563 4.86721C20.5853 4.86195 19.7716 5.67224 19.7664 6.65723C19.7611 7.62834 20.5896 8.4549 21.5625 8.44868C22.5322 8.44246 23.3425 7.63504 23.3477 6.67015C23.353 5.68899 22.5446 4.87296 21.563 4.86721ZM9.01621 14.4052C9.0344 11.7608 11.1981 9.62047 13.8257 9.64871C16.4517 9.67695 18.5872 11.8374 18.5714 14.4507C18.5556 17.0778 16.4029 19.2148 13.7826 19.2047C11.1445 19.1942 8.99803 17.0333 9.01573 14.4052H9.01621Z" fill="#F5F5F5"/>
</svg>
