<svg width="28" height="28" viewBox="0 0 28 28" fill="none" xmlns="http://www.w3.org/2000/svg">
<path fill-rule="evenodd" clip-rule="evenodd" d="M5 0C2.23858 0 0 2.23858 0 5V23C0 25.7614 2.23858 28 5 28H23C25.7614 28 28 25.7614 28 23V5C28 2.23858 25.7614 0 23 0H5ZM6.95903 8.95922C7.8063 8.9614 8.46482 8.6226 8.78452 8.06449C9.25862 7.2374 9.04367 6.1719 8.29296 5.62305C7.52698 5.06384 6.22796 5.1735 5.6082 5.86311C5.07845 6.45232 4.99061 7.14029 5.28085 7.8528C5.59565 8.62588 6.24051 8.93685 6.95958 8.95977L6.95903 8.95922ZM11.8626 22.3153V10.4383L11.8637 10.4372H15.0062L15.1901 12.1148C15.229 12.069 15.2631 12.03 15.2938 11.9951L15.2938 11.995C15.3482 11.9329 15.3916 11.8835 15.4307 11.8311C16.8317 9.95489 19.8236 9.57899 21.6109 11.0657C22.4271 11.7444 22.8515 12.6582 23.0299 13.6784C23.1341 14.2753 23.1832 14.8885 23.1881 15.4946C23.2012 17.0606 23.199 18.6265 23.1969 20.1925C23.1961 20.7832 23.1952 21.3739 23.1952 21.9645V22.3137H19.4941V21.9744C19.4941 21.4335 19.4949 20.8926 19.4957 20.3517V20.3517V20.3516V20.3516C19.4979 18.8579 19.5002 17.3641 19.4853 15.8705C19.4804 15.3888 19.4286 14.8912 19.2971 14.4297C18.9272 13.1334 17.3734 12.7133 16.3647 13.6168C15.8917 14.0401 15.6091 14.5617 15.6091 15.2175C15.6087 16.8251 15.6055 18.4324 15.6023 20.0398C15.6011 20.6826 15.5998 21.3255 15.5987 21.9684V22.3153H11.8626ZM5.2334 22.3175V10.4388H8.90509V22.3175H5.2334Z" fill="#F5F5F5"/>
</svg>
