<svg width="28" height="28" viewBox="0 0 28 28" fill="none" xmlns="http://www.w3.org/2000/svg">
<path fill-rule="evenodd" clip-rule="evenodd" d="M5 0C2.23858 0 0 2.23858 0 5V23C0 25.7614 2.23858 28 5 28H23C25.7614 28 28 25.7614 28 23V5C28 2.23858 25.7614 0 23 0H5ZM4.23781 11.2734L4.23773 11.2735L4.23827 11.274L4.23781 11.2734ZM4.15392 11.1657L4.23781 11.2734C4.34898 11.2016 4.45545 11.1322 4.55889 11.0647C4.78882 10.9147 5.00379 10.7744 5.22211 10.6398C5.92461 10.2067 6.30297 10.2723 6.71331 11.0046C7.0212 11.5537 7.29006 12.1413 7.46785 12.7436C7.71904 13.5942 7.95427 14.4499 8.18947 15.3054C8.55167 16.6229 8.91383 17.9403 9.33416 19.2391C9.6388 20.1801 10.1538 21.0815 10.7164 21.9033C11.2867 22.737 12.2174 23.0232 13.1611 22.641C14.0625 22.2762 15.0046 21.8583 15.7267 21.2317C18.7644 18.5945 21.1429 15.4295 22.8152 11.7619C23.4131 10.4512 23.5968 9.05756 23.2705 7.62598C22.9501 6.22097 22.0156 5.44691 20.5759 5.39487C17.7003 5.29133 15.4844 7.08934 14.893 10.0474C14.9501 10.0316 15.0047 10.0155 15.0577 9.99995C15.1651 9.96836 15.266 9.93868 15.3684 9.91727C15.4022 9.91013 15.4362 9.90288 15.4702 9.89562C16.1109 9.75877 16.7755 9.61685 17.2948 10.1661C17.8781 10.7819 17.7713 11.5808 17.4504 12.2237C16.8352 13.4569 16.1522 14.6727 15.3548 15.7948C14.5894 16.8713 13.9026 16.7407 13.5042 15.4577C13.1814 14.4168 12.9539 13.3452 12.7267 12.2748C12.6663 11.9901 12.6059 11.7054 12.5437 11.4215C12.4393 10.945 12.3536 10.4628 12.268 9.98076C12.1067 9.0732 11.9455 8.16632 11.6601 7.29966C11.1056 5.61332 9.55532 5.07234 8.10532 6.08979C6.93412 6.91117 5.83187 7.83085 4.7158 8.76207C4.22696 9.16994 3.73547 9.58002 3.23438 9.98502C3.59159 10.4434 3.86976 10.8007 4.15392 11.1657Z" fill="#F5F5F5"/>
</svg>
